<?xml version="1.0" encoding="utf-8"?>
<!-- Generator: Adobe Illustrator 16.0.0, SVG Export Plug-In . SVG Version: 6.00 Build 0)  -->
<!DOCTYPE svg PUBLIC "-//W3C//DTD SVG 1.1//EN" "http://www.w3.org/Graphics/SVG/1.1/DTD/svg11.dtd">
<svg version="1.1" id="Layer_1" xmlns="http://www.w3.org/2000/svg" xmlns:xlink="http://www.w3.org/1999/xlink" x="0px" y="0px"
	 width="35.459px" height="14.399px" viewBox="0 0 35.459 14.399" enable-background="new 0 0 35.459 14.399" xml:space="preserve">
<g>
	<path fill="#452724" d="M1.02,14.399H0.8c-0.533,0-0.8-0.267-0.8-0.8V0.819C0,0.273,0.267,0,0.8,0h0.4
		c0.44,0,0.747,0.207,0.92,0.62l3.22,7.42c0.067,0.146,0.15,0.262,0.25,0.346c0.1,0.084,0.197,0.126,0.29,0.126
		c0.12,0,0.217-0.055,0.29-0.166c0.073-0.11,0.11-0.272,0.11-0.486v-7.04C6.28,0.273,6.546,0,7.08,0H7.3
		c0.533,0,0.8,0.273,0.8,0.819V13.6c0,0.533-0.267,0.8-0.8,0.8H7.08c-0.44,0-0.747-0.199-0.92-0.6l-3.4-7.78
		C2.626,5.692,2.453,5.528,2.24,5.528c-0.12,0-0.22,0.062-0.3,0.186S1.82,6.007,1.82,6.22v7.38
		C1.82,14.133,1.553,14.399,1.02,14.399z"/>
	<path fill="#452724" d="M17.62,13.359L16.979,14c-0.267,0.267-0.593,0.399-0.98,0.399h-3.86c-0.387,0-0.713-0.133-0.98-0.399
		l-0.66-0.66c-0.267-0.267-0.4-0.593-0.4-0.98V2.04c0-0.387,0.133-0.721,0.4-1l0.64-0.641C11.406,0.133,11.733,0,12.12,0H16
		c0.387,0,0.713,0.14,0.98,0.42l0.64,0.64c0.267,0.267,0.4,0.594,0.4,0.98v10.319C18.02,12.747,17.886,13.08,17.62,13.359z
		 M16.2,11.779V2.62c0-0.533-0.267-0.801-0.8-0.801h-2.68c-0.534,0-0.8,0.268-0.8,0.801v9.159c0,0.534,0.267,0.801,0.8,0.801h2.68
		C15.933,12.58,16.2,12.313,16.2,11.779z"/>
	<path fill="#452724" d="M19.619,0h6.32c0.533,0,0.801,0.273,0.801,0.819V1.04c0,0.52-0.268,0.779-0.801,0.779H24.5
		c-0.533,0-0.801,0.273-0.801,0.82v10.94c0,0.547-0.267,0.819-0.8,0.819h-0.22c-0.533,0-0.801-0.272-0.801-0.819V2.64
		c0-0.547-0.266-0.82-0.799-0.82h-1.461c-0.533,0-0.8-0.26-0.8-0.779V0.819C18.819,0.273,19.086,0,19.619,0z"/>
	<path fill="#452724" d="M35.06,13.359L34.42,14c-0.268,0.267-0.594,0.399-0.98,0.399H29.58c-0.387,0-0.714-0.133-0.98-0.399
		l-0.66-0.66c-0.267-0.267-0.4-0.593-0.4-0.98V2.04c0-0.387,0.134-0.721,0.4-1l0.641-0.641C28.846,0.133,29.173,0,29.56,0h3.88
		c0.387,0,0.713,0.14,0.98,0.42l0.64,0.64c0.267,0.267,0.399,0.594,0.399,0.98v10.319C35.459,12.747,35.326,13.08,35.06,13.359z
		 M33.64,11.779V2.62c0-0.533-0.267-0.801-0.8-0.801h-2.68c-0.534,0-0.801,0.268-0.801,0.801v9.159c0,0.534,0.267,0.801,0.801,0.801
		h2.68C33.373,12.58,33.64,12.313,33.64,11.779z"/>
</g>
</svg>
